.
..............................Site Info...........................

 -   http://www.scenetime.com  *_*    

Scenetime .Always on time . friendly online private torrent community ..

     We care to share . Join us on  http://www.scenetime.com 

    Be the first to get new release at  http://www.scenetime.com

        Seed back for speed


...................................NFO:.................................................[img]http://www.filmofilia.com/wp-content/uploads/2011/12/mib3_image.jpg[/img]




description:

Agent J travels in time to MIB's early years in the 1960s, to stop an alien from assassinating his friend Agent K and changing history.  





Source-ARY Thanks




file nfo

Format                           : AVI
Format/Info                      : Audio Video Interleave
File size                        : 804.89 MiB


Video
ID                               : 0
Format                           : MPEG-4 Visual
Format profile                   : Advanced Simple@L5
Format settings, BVOP            : Yes
Format settings, QPel            : No
Format settings, GMC             : No warppoints
Format settings, Matrix          : Default (H.263)
Codec ID                         : XVID
Codec ID/Hint                    : XviD
Duration                         : 1hour 49 minutes
Bit rate                         : 6 329 Kbps
Width                            : 720 pixels
Height                           : 480 pixels
Display aspect ratio             : 3:2
Frame rate                       : 23.976 fps
Standard                         : NTSC
Color space                      : YUV
Chroma subsampling               : 4:2:0
Bit depth                        : 8 bits
Scan type                        : Progressive
Bits/(Pixel*Frame)               : 0.764
Stream size                      : 30.1 MiB (98%)
Writing library                  : XviD 1.2.1 (UTC 2008-12-04)

Audio
ID                               : 1
Format                           : AC-3
Format/Info                      : Audio Coding 3
Mode extension                   : CM (complete main)
Codec ID                         : 2000
Duration                         : 1 hour 49 minutes
Bit rate mode                    : Constant
Bit rate                         : 128 Kbps
Channel(s)                       : 6 channels
Channel positions                : Front: L C R, Side: L R, LFE
Sampling rate                    : 48.0 KHz
Bit depth                        : 16 bits
Stream size                      : 624 KiB (2%)
Alignment                        : Aligned on interleaves
Interleave, duration             : 32 ms (0.77 video frame)





Encoder - BallZac



screenies 

[IMG]http://i.imgur.com/yhmGl.jpg?1[/IMG]

[IMG]http://i.imgur.com/nmH0R.jpg?1[/IMG]

[IMG]http://i.imgur.com/8FVEn.jpg?1[/IMG]



Greetz to CM8 Tragedy BBnRG dopeonarope MrSeeN jiinx UNiQUE and to all those who make this possible ;)
And All the ballwashers out there

[IMG]http://i40.photobucket.com/albums/e243/tragedy42069/NewEra1.png[/IMG]